<svg width="109" height="56" viewBox="0 0 109 56" fill="none" xmlns="http://www.w3.org/2000/svg">
<path d="M19.932 30.5515C19.1852 29.7986 18.3221 29.1161 17.3548 28.5162C16.015 27.686 14.3009 27.2638 12.2603 27.2638C10.659 27.2638 9.10381 27.5769 7.6375 28.1943C6.16605 28.8135 4.85184 29.7476 3.73074 30.9701C2.61476 32.1874 1.70387 33.6949 1.0254 35.4522C0.345217 37.2095 0 39.2553 0 41.5298V41.6301C0 43.9063 0.345217 45.9503 1.02369 47.7076C1.70216 49.4667 2.6216 50.976 3.75466 52.1915C4.88943 53.4123 6.2122 54.3446 7.68364 54.9655C9.14996 55.5829 10.6898 55.8961 12.2586 55.8961C14.2684 55.8961 15.9671 55.4651 17.3087 54.6172C18.2828 53.9998 19.1612 53.2487 19.9303 52.3744V55.3965H28.1557V18.0797H19.9303V30.5515H19.932ZM19.5475 38.6467C19.8671 39.5139 20.0294 40.4831 20.0294 41.5315V41.6318C20.0294 42.6802 19.8671 43.6495 19.5475 44.5167C19.2279 45.3821 18.7989 46.1315 18.2709 46.7419C17.7479 47.3452 17.1275 47.8167 16.4269 48.1403C15.7262 48.464 14.9622 48.6294 14.1539 48.6294C13.3455 48.6294 12.5799 48.4658 11.8792 48.1403C11.1751 47.8149 10.5462 47.3417 10.0062 46.7366C9.46441 46.128 9.02691 45.3804 8.70904 44.5167C8.38945 43.6495 8.2271 42.6802 8.2271 41.6318V41.5315C8.2271 40.4532 8.38945 39.4752 8.70733 38.6238C9.0252 37.7759 9.4627 37.0354 10.0062 36.425C10.5462 35.8181 11.1751 35.3467 11.8792 35.0212C12.5799 34.6958 13.3455 34.5322 14.1522 34.5322C14.9588 34.5322 15.7245 34.6976 16.4251 35.0212C17.1275 35.3467 17.7479 35.8163 18.2692 36.4197C18.7989 37.0319 19.2279 37.7795 19.5475 38.6449V38.6467Z" fill="#D9D9D9"/>
<path d="M47.3711 27.2655C46.3952 27.2655 45.5048 27.3904 44.7238 27.6366C43.9445 27.8829 43.225 28.2207 42.5825 28.6411C41.9433 29.0597 41.3554 29.5452 40.8359 30.0835C40.612 30.3157 40.3949 30.5549 40.1847 30.7994V27.7633H31.9594V55.3982H40.1847V40.0697C40.1847 38.4003 40.5624 37.1356 41.3076 36.3106C42.0544 35.4838 43.0559 35.081 44.3649 35.081C45.674 35.081 46.643 35.4803 47.342 36.3C48.0444 37.125 48.3999 38.3933 48.3999 40.0679V55.3964H56.6253V37.6352C56.6253 34.4442 55.8135 31.8936 54.2122 30.0536C52.5989 28.2013 50.2969 27.262 47.3711 27.262V27.2655Z" fill="#D9D9D9"/>
<path d="M79.2479 45.5615L78.9437 45.8517C78.0687 46.689 77.1749 47.3645 76.2897 47.8588C75.4369 48.3373 74.42 48.5783 73.2682 48.5783C72.3316 48.5783 71.4771 48.3989 70.7303 48.0435C69.9801 47.6882 69.3255 47.1957 68.7838 46.5765C68.242 45.9573 67.8216 45.2185 67.5362 44.3776C67.2474 43.5315 67.1004 42.6063 67.1004 41.6282V41.528C67.1004 40.5833 67.2474 39.6845 67.5362 38.8559C67.8233 38.0309 68.2369 37.2974 68.765 36.6765C69.2896 36.059 69.9134 35.5647 70.6192 35.2094C71.3165 34.8576 72.1112 34.6799 72.9776 34.6799C74.2184 34.6799 75.2643 34.9279 76.0846 35.4187C76.9357 35.9289 77.7765 36.6254 78.5865 37.4909L78.8993 37.8251L83.9836 32.1979L83.7204 31.8988C82.4591 30.4652 80.9791 29.3218 79.3197 28.5021C77.6517 27.6788 75.5343 27.2602 73.0238 27.2602C70.9713 27.2602 69.064 27.6419 67.3516 28.393C65.6409 29.1459 64.1507 30.1855 62.9219 31.4855C61.6931 32.7854 60.7156 34.3263 60.02 36.0678C59.3228 37.8111 58.969 39.6809 58.969 41.6265V41.7267C58.969 43.674 59.3228 45.5351 60.02 47.2625C60.7173 48.9881 61.6931 50.5132 62.9236 51.7956C64.1541 53.0797 65.6443 54.1105 67.3516 54.8617C69.0623 55.6145 70.9388 55.9962 72.9264 55.9962C75.5719 55.9962 77.7628 55.516 79.4376 54.5696C81.0885 53.6356 82.5788 52.4201 83.8639 50.9601L84.1357 50.6522L79.2445 45.5597L79.2479 45.5615Z" fill="#D9D9D9"/>
<path d="M91.0058 0H73.0135V18.5194H91.0058V0Z" fill="#00ABFF"/>
<path d="M91.0061 0H100.515C105.198 0 109 3.91392 109 8.73375V18.5212H91.0078V0H91.0061Z" fill="#0C70F2"/>
<path d="M108.998 18.5195H91.0061V37.0389H108.998V18.5195Z" fill="#00D7EE"/>
</svg>
